Barter Kings Season 2 Episode 6.

I only uploaded this because the other version is missing the last 15 minutes.



Format                                   : Matroska
Format version                           : Version 2
File size                                : 340 MiB
Duration                                 : 43mn 0s
Overall bit rate                         : 1 107 Kbps

Video
ID                                       : 1
Format                                   : AVC
Format/Info                              : Advanced Video Codec
Format profile                           : High@L3.0
Format settings, CABAC                   : Yes
Format settings, ReFrames                : 3 frames
Codec ID                                 : V_MPEG4/ISO/AVC
Duration                                 : 43mn 0s
Bit rate                                 : 975 Kbps
Width                                    : 704 pixels
Height                                   : 384 pixels
Display aspect ratio                     : 16:9
Frame rate mode                          : Variable
Frame rate                               : 29.970 fps
Color space                              : YUV
Chroma subsampling                       : 4:2:0
Bit depth                                : 8 bits
Scan type                                : Progressive
Bits/(Pixel*Frame)                       : 0.120
Stream size                              : 294 MiB (86%)
Writing library                          : x264 core 129

Audio
ID                                       : 2
Format                                   : AC-3
Format/Info                              : Audio Coding 3
Mode extension                           : CM (complete main)
Codec ID                                 : A_AC3
Duration                                 : 43mn 0s
Bit rate mode                            : Constant
Bit rate                                 : 128 Kbps
Channel(s)                               : 2 channels
Channel positions                        : Front: L R
Sampling rate                            : 48.0 KHz
Bit depth                                : 16 bits
Compression mode                         : Lossy
Delay relative to video                  : -33ms
Stream size                              : 39.4 MiB (12%)
Default                                  : Yes
Forced                                   : No
